<svg width="44" height="43" viewBox="0 0 44 43" fill="none" xmlns="http://www.w3.org/2000/svg">
<path d="M22.2319 0C34.0403 0 43.6128 9.57253 43.6128 21.3809C43.6128 33.1892 34.0403 42.7617 22.2319 42.7617C10.4236 42.7617 0.851074 33.1892 0.851074 21.3809C0.851096 9.57255 10.4236 2.16484e-05 22.2319 0ZM22.231 9.97754C19.136 9.97755 18.7468 9.99153 17.5308 10.0469C16.317 10.1025 15.4882 10.2942 14.7632 10.5762C14.0133 10.8674 13.3774 11.2576 12.7437 11.8916C12.1094 12.5254 11.7194 13.1614 11.4272 13.9111C11.1446 14.6364 10.9526 15.4654 10.8979 16.6787C10.8435 17.895 10.8286 18.2842 10.8286 21.3809C10.8286 24.4778 10.8428 24.8657 10.8979 26.082C10.9538 27.2959 11.1455 28.1246 11.4272 28.8496C11.7187 29.5996 12.1086 30.2363 12.7427 30.8701C13.3762 31.5043 14.0128 31.8943 14.7622 32.1855C15.4876 32.4675 16.3163 32.6602 17.5298 32.7158C18.7461 32.7712 19.1352 32.7842 22.2319 32.7842C25.3289 32.7842 25.7168 32.7712 26.9331 32.7158C28.1468 32.6602 28.9762 32.4675 29.7017 32.1855C30.4513 31.8943 31.0867 31.5042 31.7202 30.8701C32.3545 30.2363 32.7444 29.5994 33.0366 28.8496C33.3169 28.1244 33.5089 27.2954 33.5659 26.082C33.6206 24.8658 33.6353 24.4777 33.6353 21.3809C33.6353 18.2846 33.6205 17.8957 33.5659 16.6797C33.5089 15.4657 33.317 14.6362 33.0366 13.9111C32.7444 13.1613 32.3544 12.5253 31.7202 11.8916C31.0859 11.2573 30.4514 10.8672 29.7007 10.5762C28.9739 10.2943 28.1448 10.1025 26.9312 10.0469C25.715 9.99153 25.3275 9.97754 22.231 9.97754Z" fill="white"/>
<path d="M21.21 12.0328C21.5136 12.0324 21.8528 12.0328 22.2334 12.0328C25.2777 12.0328 25.6386 12.0436 26.8408 12.0983C27.9525 12.1491 28.556 12.3348 28.958 12.4908C29.4902 12.6975 29.8697 12.9452 30.2686 13.3444C30.6675 13.7433 30.915 14.123 31.1221 14.6549C31.2782 15.0564 31.464 15.6603 31.5146 16.7721C31.5693 17.9741 31.5811 18.3354 31.5811 21.3785C31.5811 24.4217 31.5693 24.7829 31.5146 25.985C31.4638 27.0964 31.2781 27.6997 31.1221 28.1012C30.9154 28.6333 30.6677 29.0129 30.2686 29.4117C29.8695 29.8108 29.4904 30.0576 28.958 30.2643C28.5565 30.4211 27.9526 30.607 26.8408 30.6578C25.6389 30.7125 25.2776 30.7242 22.2334 30.7242C19.1885 30.7242 18.8271 30.7125 17.625 30.6578C16.5134 30.6065 15.91 30.4203 15.5078 30.2643C14.9757 30.0576 14.5953 29.8108 14.1963 29.4117C13.7972 29.0126 13.5499 28.6326 13.3428 28.1002C13.1867 27.6987 13.0008 27.0953 12.9502 25.984C12.8956 24.7819 12.8848 24.4207 12.8848 21.3756C12.8848 18.3305 12.8956 17.9712 12.9502 16.7692C13.001 15.6575 13.1867 15.0539 13.3428 14.652C13.5495 14.1198 13.7972 13.7396 14.1963 13.3405C14.5954 12.9413 14.9757 12.6941 15.5078 12.4869C15.9098 12.3302 16.5135 12.1454 17.625 12.0944C18.6769 12.0468 19.0848 12.0323 21.21 12.0299V12.0328ZM22.2324 15.525C18.9987 15.5254 16.377 18.1477 16.377 21.3815C16.3772 24.6153 18.9995 27.236 22.2334 27.236C25.4671 27.2358 28.0877 24.6152 28.0879 21.3815C28.0879 18.1475 25.4664 15.525 22.2324 15.525ZM28.3203 13.9254C27.5648 13.9254 26.9512 14.5389 26.9512 15.2946C26.9513 16.0499 27.5649 16.6627 28.3203 16.6627C29.0755 16.6626 29.6883 16.0498 29.6885 15.2946C29.6885 14.5392 29.0756 13.9256 28.3203 13.9254Z" fill="white"/>
<path d="M22.2332 17.58C24.3324 17.58 26.0343 19.2817 26.0343 21.381C26.0343 23.4802 24.3324 25.1821 22.2332 25.1821C20.1338 25.1821 18.4321 23.4802 18.4321 21.381C18.4321 19.2817 20.1338 17.58 22.2332 17.58Z" fill="white"/>
</svg>
