<svg width="341" height="224" viewBox="0 0 341 224" fill="none" xmlns="http://www.w3.org/2000/svg">
<g clip-path="url(#clip0_253_1558)">
<path d="M49.0412 39.6006C62.2877 39.6006 73.084 50.5099 73.084 63.8007C73.084 77.0916 62.2877 88.0008 49.0412 88.0008C35.7948 88.0008 24.9219 77.1684 24.9219 63.8007C24.9219 50.4331 35.7182 39.6006 49.0412 39.6006ZM49.0412 32.6095C31.8131 32.6095 17.9541 46.5918 17.9541 63.8007C17.9541 81.0097 31.8897 94.9919 49.0412 94.9919C66.1928 94.9919 80.0518 81.0097 80.0518 63.8007C80.0518 46.5918 66.1928 32.6095 49.0412 32.6095Z" fill="#BE7AC2"/>
<path d="M73.4669 63.8007C73.4669 77.322 62.5174 88.3081 49.0412 88.3081C44.2174 88.3081 39.7764 86.9252 35.9479 84.5437C32.2726 82.2389 29.2864 78.9354 27.219 75.0173C25.4579 71.6369 24.5391 67.8725 24.5391 63.8007C24.5391 50.2794 35.4885 39.2933 48.9647 39.2933C53.0229 39.2933 56.7747 40.2921 60.1438 41.9822C64.0488 43.9797 67.3413 47.0527 69.6384 50.7404C72.0886 54.5048 73.4669 58.9607 73.4669 63.8007Z" fill="white"/>
<path d="M49.0412 66.5665C50.5635 66.5665 51.7977 65.3282 51.7977 63.8008C51.7977 62.2733 50.5635 61.035 49.0412 61.035C47.5188 61.035 46.2847 62.2733 46.2847 63.8008C46.2847 65.3282 47.5188 66.5665 49.0412 66.5665Z" stroke="#0A1031" stroke-width="2" stroke-miterlimit="10"/>
<path d="M51.1084 62.1874L64.0486 51.8159" stroke="#0A1031" stroke-width="2" stroke-miterlimit="10"/>
<path d="M49.041 49.4343V61.035" stroke="#0A1031" stroke-width="2" stroke-miterlimit="10"/>
<path d="M75.6872 63.8008C75.6872 78.5513 63.7424 90.6129 48.9645 90.6129C43.7578 90.6129 38.8573 89.0764 34.7226 86.4643C30.741 83.9291 27.4485 80.3183 25.228 76.0929C23.3138 72.4052 22.3184 68.2567 22.3184 63.8776C22.3184 49.1271 34.2632 37.0654 49.0411 37.0654C53.4055 37.0654 57.6168 38.141 61.2156 39.9848C65.4269 42.2127 69.0257 45.5163 71.5524 49.5112C74.1558 53.6598 75.6872 58.5766 75.6872 63.8008Z" stroke="#0A1031" stroke-width="2" stroke-miterlimit="10"/>
<path d="M254.4 185.493H144.293V75.555L152.793 52.0464H254.4V185.493Z" fill="#6EB9A8"/>
<path d="M194.906 75.5551H84.7993V208.924H194.906V75.5551Z" fill="white"/>
<path d="M254.4 75.5551H194.906V208.924H254.4V75.5551Z" fill="#6EB9A8"/>
<path d="M107.081 75.555H239.776L248.581 52.0464" stroke="#0A1031" stroke-width="2" stroke-miterlimit="10"/>
<path d="M84.7993 96.9894H194.906" stroke="#0A1031" stroke-width="2" stroke-miterlimit="10"/>
<path d="M138.398 182.88C157.766 182.88 173.467 167.127 173.467 147.694C173.467 128.262 157.766 112.508 138.398 112.508C119.03 112.508 103.329 128.262 103.329 147.694C103.329 167.127 119.03 182.88 138.398 182.88Z" stroke="#0A1031" stroke-width="2" stroke-miterlimit="10"/>
<path d="M68.3368 120.421C83.3444 120.421 95.5189 132.637 95.5189 147.694C95.5189 162.752 83.3444 174.967 68.3368 174.967C53.3292 174.967 41.1547 162.752 41.1547 147.694C41.1547 132.637 53.3292 120.421 68.3368 120.421ZM68.3368 112.508C48.9648 112.508 33.2681 128.257 33.2681 147.694C33.2681 167.131 48.9648 182.88 68.3368 182.88C87.7089 182.88 103.406 167.131 103.406 147.694C103.406 128.257 87.6323 112.508 68.3368 112.508Z" fill="#6EB9A8"/>
<path d="M138.398 176.581C154.298 176.581 167.188 163.648 167.188 147.694C167.188 131.741 154.298 118.808 138.398 118.808C122.498 118.808 109.608 131.741 109.608 147.694C109.608 163.648 122.498 176.581 138.398 176.581Z" fill="#0A1031" stroke="#6EB9A8" stroke-width="2" stroke-miterlimit="10"/>
<path d="M114.661 147.694C114.661 132.56 126.223 120.191 140.925 118.885C140.083 118.808 139.24 118.808 138.398 118.808C122.472 118.808 109.608 131.715 109.608 147.694C109.608 163.674 122.472 176.581 138.398 176.581C139.24 176.581 140.083 176.504 140.925 176.504C126.223 175.198 114.661 162.752 114.661 147.694Z" fill="#6EB9A8"/>
<path d="M84.7993 195.403H194.906" stroke="#6EB9A8" stroke-width="2" stroke-miterlimit="10"/>
<path d="M181.2 91.458C183.441 91.458 185.258 89.635 185.258 87.3862C185.258 85.1374 183.441 83.3145 181.2 83.3145C178.959 83.3145 177.142 85.1374 177.142 87.3862C177.142 89.635 178.959 91.458 181.2 91.458Z" stroke="#6EB9A8" stroke-width="2" stroke-miterlimit="10"/>
<path d="M213.129 67.7188C215.371 67.7188 217.188 65.8959 217.188 63.6471C217.188 61.3983 215.371 59.5753 213.129 59.5753C210.888 59.5753 209.071 61.3983 209.071 63.6471C209.071 65.8959 210.888 67.7188 213.129 67.7188Z" stroke="#0A1031" stroke-width="2" stroke-miterlimit="10"/>
<path d="M225.917 67.7188C228.158 67.7188 229.975 65.8959 229.975 63.6471C229.975 61.3983 228.158 59.5753 225.917 59.5753C223.675 59.5753 221.858 61.3983 221.858 63.6471C221.858 65.8959 223.675 67.7188 225.917 67.7188Z" stroke="#0A1031" stroke-width="2" stroke-miterlimit="10"/>
<path d="M172.701 87.3862C172.701 85.1583 170.863 83.3145 168.643 83.3145C166.422 83.3145 164.584 85.1583 164.584 87.3862C164.584 89.6142 166.422 91.458 168.643 91.458C170.863 91.458 172.701 89.6142 172.701 87.3862Z" fill="#FFAF66"/>
<path d="M120.557 82.3157H91.8438V91.4579H120.557V82.3157Z" stroke="#0A1031" stroke-width="2" stroke-miterlimit="10"/>
<path d="M94.064 82.3157L98.2753 86.5411H114.355L118.413 82.4693" stroke="#0A1031" stroke-width="2" stroke-miterlimit="10"/>
<path d="M96.7441 208.924L104.784 200.935H175.304L183.574 209.232" stroke="#0A1031" stroke-width="2" stroke-miterlimit="10"/>
<path opacity="0.38" d="M100.266 147.694C100.266 165.441 85.948 179.807 68.2605 179.807C61.9818 179.807 56.0859 177.964 51.1855 174.814C46.3616 171.741 42.4566 167.438 39.8532 162.368C37.6327 157.989 36.3311 152.995 36.3311 147.694C36.3311 129.948 50.6495 115.581 68.337 115.581C73.6203 115.581 78.5973 116.887 82.9618 119.115C88.0154 121.727 92.3032 125.722 95.366 130.485C98.4288 135.479 100.266 141.395 100.266 147.694Z" fill="white"/>
<path opacity="0.38" d="M95.3659 130.562L51.2619 174.814C46.4381 171.741 42.533 167.439 39.9297 162.368L82.9616 119.192C88.0152 121.727 92.3031 125.722 95.3659 130.562Z" fill="white"/>
<path d="M103.329 143.238H97.8159V151.843H103.329V143.238Z" fill="#0A1031"/>
<path d="M211.981 124.339H238.627" stroke="#0A1031" stroke-width="2" stroke-miterlimit="10"/>
<path d="M211.981 130.716H238.627" stroke="#0A1031" stroke-width="2" stroke-miterlimit="10"/>
<path d="M211.981 137.092H238.627" stroke="#0A1031" stroke-width="2" stroke-miterlimit="10"/>
<path opacity="0.38" d="M197.662 69.2554H161.751L166.422 58.0388H202.333L197.662 69.2554Z" fill="white"/>
<path d="M322.929 175.275H225.15C224.002 175.275 223.083 174.353 223.083 173.201V172.509C223.083 171.357 224.002 170.435 225.15 170.435H322.929C324.078 170.435 324.997 171.357 324.997 172.509V173.201C324.997 174.353 324.078 175.275 322.929 175.275Z" fill="#BE7AC2"/>
<path d="M321.398 175.275H226.682L232.807 208.924H315.272L321.398 175.275Z" fill="#BE7AC2"/>
<path d="M228.672 175.275H319.407" stroke="#0A1031" stroke-width="2" stroke-miterlimit="10"/>
<path d="M240.158 200.858C241.077 200.858 241.689 200.09 241.536 199.168L238.627 180.729C238.55 180.038 237.937 179.5 237.248 179.5C236.406 179.5 235.717 180.268 235.87 181.19L238.78 199.629C238.856 200.32 239.469 200.858 240.158 200.858Z" fill="#B15CB7"/>
<path d="M249.499 179.577C248.657 179.577 247.968 180.345 248.044 181.19L249.959 199.629C250.035 200.397 250.648 200.935 251.413 200.935C252.256 200.935 252.945 200.166 252.868 199.321L250.954 180.883C250.877 180.115 250.265 179.577 249.499 179.577Z" fill="#B15CB7"/>
<path d="M261.751 179.577C260.908 179.577 260.296 180.268 260.296 181.114L261.291 199.552C261.368 200.32 261.98 200.935 262.746 200.935C263.588 200.935 264.201 200.243 264.201 199.398L263.206 180.96C263.206 180.192 262.516 179.577 261.751 179.577Z" fill="#B15CB7"/>
<path d="M274.002 179.577C273.236 179.577 272.547 180.192 272.547 181.037V199.475C272.547 200.243 273.159 200.935 274.002 200.935C274.767 200.935 275.457 200.32 275.457 199.475V181.037C275.457 180.192 274.844 179.577 274.002 179.577Z" fill="#B15CB7"/>
<path d="M286.329 179.577C285.563 179.577 284.951 180.192 284.874 180.96L283.879 199.398C283.802 200.243 284.491 200.935 285.334 200.935C286.099 200.935 286.712 200.32 286.789 199.552L287.784 181.114C287.784 180.268 287.095 179.577 286.329 179.577Z" fill="#B15CB7"/>
<path d="M298.581 179.577C297.815 179.577 297.202 180.115 297.126 180.883L295.212 199.321C295.135 200.166 295.748 200.935 296.666 200.935C297.432 200.935 298.045 200.397 298.121 199.629L300.035 181.19C300.035 180.345 299.423 179.577 298.581 179.577Z" fill="#B15CB7"/>
<path d="M310.831 179.577C310.142 179.577 309.53 180.115 309.453 180.806L306.543 199.244C306.39 200.089 307.079 200.935 307.922 200.935C308.611 200.935 309.223 200.397 309.3 199.705L312.21 181.267C312.363 180.345 311.674 179.577 310.831 179.577Z" fill="#B15CB7"/>
<path d="M314.43 170.512H245.441C241.842 170.512 238.933 167.592 238.933 163.981V159.449C238.933 155.838 241.842 152.919 245.441 152.919H314.43V170.512Z" fill="#FFAF66"/>
<path d="M245.977 161.754H314.43" stroke="#0A1031" stroke-width="2" stroke-miterlimit="10"/>
<path d="M233.649 152.919H302.638C306.237 152.919 309.147 149.999 309.147 146.388V141.856C309.147 138.245 306.237 135.325 302.638 135.325H233.649V152.919Z" fill="#BE7AC2"/>
<path d="M302.102 144.16H233.649" stroke="#0A1031" stroke-width="2" stroke-miterlimit="10"/>
<path d="M249.27 208.924L253.021 205.16H294.981L298.733 209.001" stroke="#0A1031" stroke-width="2" stroke-miterlimit="10"/>
<path d="M286.636 61.9569H273.772V68.2566H286.636V61.9569Z" fill="#6EB9A8"/>
<path d="M285.181 55.4268H275.15V61.9569H285.181V55.4268Z" fill="#6EB9A8"/>
<path d="M273.772 61.9569H286.636" stroke="#0A1031" stroke-width="2" stroke-miterlimit="10"/>
<path d="M275.916 63.4166V68.2566" stroke="#0A1031" stroke-width="2" stroke-miterlimit="10"/>
<path d="M278.366 63.4166V68.2566" stroke="#0A1031" stroke-width="2" stroke-miterlimit="10"/>
<path d="M280.816 63.4166V68.2566" stroke="#0A1031" stroke-width="2" stroke-miterlimit="10"/>
<path d="M283.267 63.4166V68.2566" stroke="#0A1031" stroke-width="2" stroke-miterlimit="10"/>
<path d="M285.717 63.4166V68.2566" stroke="#0A1031" stroke-width="2" stroke-miterlimit="10"/>
<path d="M292.915 74.0953L286.636 68.2566H273.772L267.494 74.0953C257.31 82.7766 258.688 101.676 258.688 101.676V128.642C258.688 132.406 261.674 135.402 265.426 135.402H280.204H280.281H295.058C298.81 135.402 301.797 132.406 301.797 128.642V101.676C301.643 101.676 303.098 82.7766 292.915 74.0953ZM294.522 103.52L289.775 102.674C288.474 102.444 287.555 101.368 287.555 100.062V81.0865C287.555 78.5512 290.771 77.3988 292.302 79.4731C292.838 80.0877 293.297 80.856 293.833 81.7779C295.594 84.8509 296.666 88.3081 296.973 91.8421C297.202 94.3005 297.509 97.6808 297.585 100.831C297.662 102.444 296.207 103.827 294.522 103.52Z" fill="white"/>
<path d="M266.651 87.6935C266.192 88.4618 265.962 89.3068 265.962 90.2288V124.877C265.962 127.566 268.182 129.794 270.862 129.794H285.87C289.392 129.794 291.766 126.183 290.388 122.88L275.38 88.2313C273.772 84.6205 268.718 84.2364 266.651 87.6935Z" fill="#6EB9A8"/>
<path d="M8 209.232H329.744" stroke="#0A1031" stroke-width="2" stroke-miterlimit="10"/>
<path d="M329.821 129.563V140.626" stroke="#0A1031" stroke-width="2" stroke-miterlimit="10"/>
<path d="M335.334 135.095H324.308" stroke="#0A1031" stroke-width="2" stroke-miterlimit="10"/>
<path d="M27.908 170.512C27.908 172.202 26.5297 173.508 24.9218 173.508C23.2372 173.508 21.9355 172.125 21.9355 170.512C21.9355 168.821 23.3138 167.515 24.9218 167.515C26.6063 167.515 27.908 168.821 27.908 170.512Z" stroke="#0A1031" stroke-width="2" stroke-miterlimit="10"/>
<path d="M13.8193 161.754C15.4262 161.754 16.7289 160.446 16.7289 158.834C16.7289 157.222 15.4262 155.915 13.8193 155.915C12.2124 155.915 10.9097 157.222 10.9097 158.834C10.9097 160.446 12.2124 161.754 13.8193 161.754Z" fill="#FFAF66"/>
<path d="M322.317 115.581C322.317 113.968 321.016 112.662 319.408 112.662C317.8 112.662 316.498 113.968 316.498 115.581C316.498 117.195 317.8 118.501 319.408 118.501C321.016 118.501 322.317 117.195 322.317 115.581Z" fill="#BE7AC2"/>
<path d="M263.665 32.7631L261.827 31.7644C261.215 31.4571 260.755 30.9962 260.449 30.3816L259.454 28.5377C259.071 27.8463 258.075 27.8463 257.693 28.5377L256.697 30.3816C256.391 30.9962 255.931 31.4571 255.319 31.7644L253.481 32.7631C252.792 33.1473 252.792 34.146 253.481 34.5301L255.319 35.5289C255.931 35.8362 256.391 36.2971 256.697 36.9117L257.693 38.7556C258.075 39.447 259.071 39.447 259.454 38.7556L260.449 36.9117C260.755 36.2971 261.215 35.8362 261.827 35.5289L263.665 34.5301C264.431 34.146 264.431 33.1473 263.665 32.7631Z" fill="white"/>
<path d="M27.372 190.102L25.5343 189.103C24.9217 188.796 24.4623 188.335 24.156 187.721L23.1606 185.877C22.7778 185.185 21.7824 185.185 21.3995 185.877L20.4041 187.721C20.0979 188.335 19.6384 188.796 19.0259 189.103L17.1882 190.102C16.4991 190.486 16.4991 191.485 17.1882 191.869L19.0259 192.868C19.6384 193.175 20.0979 193.636 20.4041 194.251L21.3995 196.095C21.7824 196.786 22.7778 196.786 23.1606 196.095L24.156 194.251C24.4623 193.636 24.9217 193.175 25.5343 192.868L27.372 191.869C28.1376 191.485 28.1376 190.409 27.372 190.102Z" fill="#6EB9A8"/>
<path d="M340.464 160.832L338.627 159.833C338.014 159.526 337.555 159.065 337.248 158.45L336.253 156.606C335.87 155.915 334.875 155.915 334.492 156.606L333.496 158.45C333.19 159.065 332.731 159.526 332.118 159.833L330.281 160.832C329.591 161.216 329.591 162.214 330.281 162.599L332.118 163.597C332.731 163.905 333.19 164.366 333.496 164.98L334.492 166.824C334.875 167.515 335.87 167.515 336.253 166.824L337.248 164.98C337.555 164.366 338.014 163.905 338.627 163.597L340.464 162.599C341.153 162.214 341.153 161.216 340.464 160.832Z" fill="white"/>
</g>
<g clip-path="url(#clip1_253_1558)">
<path d="M67.9909 175.822L54.3562 177.438C52.5322 177.946 52.4866 180.487 54.2194 181.087L75.6974 188.524C77.4759 189.125 78.9351 187.046 77.7951 185.568L67.9909 175.822Z" stroke="#0A1031" stroke-miterlimit="10"/>
<path d="M67.991 175.821L71.2287 172.865C72.5967 171.618 72.2319 169.355 70.5447 168.662C70.4991 168.662 70.4535 168.615 70.4079 168.615C68.9942 168.154 67.4894 168.893 66.9878 170.325" stroke="#0A1031" stroke-miterlimit="10"/>
<path d="M64.7077 184.921C67.9453 186.03 71.411 184.875 73.3718 182.242L73.007 181.873L59.9196 177.346L59.418 177.392C59.4636 180.718 61.47 183.813 64.7077 184.921Z" fill="#53AA93"/>
<path d="M73.919 180.764C71.9582 183.397 68.4925 184.552 65.2549 183.443C62.0172 182.335 59.9652 179.24 60.0108 175.96L50.4802 177.069L38.168 213.514L68.4469 224L80.7592 187.554L73.919 180.764Z" fill="#6EB9A8"/>
<path d="M50.48 177.069C50.48 177.069 37.5294 186.677 37.7574 186.769C37.9398 186.815 44.4151 195.176 44.4151 195.176L50.48 177.069Z" fill="#6EB9A8"/>
<path d="M48.5191 182.797L43.3662 198.132" stroke="#0A1031" stroke-miterlimit="10"/>
<path d="M80.759 187.554C80.759 187.554 85.1822 203.167 84.9542 203.121C84.7718 203.075 74.6484 205.615 74.6484 205.615L80.759 187.554Z" fill="#6EB9A8"/>
<path d="M78.7979 193.282L73.645 208.618" stroke="#0A1031" stroke-miterlimit="10"/>
<path d="M74.9219 182.473C72.4138 185.152 68.5378 186.261 64.8897 185.014C61.2416 183.767 58.8704 180.533 58.46 176.884" stroke="#0A1031" stroke-miterlimit="10"/>
<path d="M74.9224 154.804C74.968 154.342 74.8767 153.834 74.7399 153.326C74.0559 151.247 71.8215 150.185 69.7695 150.97C69.5871 151.062 69.4046 151.155 69.2222 151.247L65.5742 152.818C64.2062 153.418 62.7925 153.88 61.3333 154.25L57.6396 155.22C57.4116 155.266 57.2292 155.266 57.0012 155.358C56.8644 155.404 56.7732 155.451 56.6364 155.497C54.8124 156.282 53.8092 158.361 54.4932 160.301C54.6756 160.809 54.9036 161.225 55.2228 161.594C55.9068 162.426 56.3172 163.442 56.226 164.55C56.1804 165.105 56.2716 165.659 56.454 166.26C57.138 168.107 59.1445 169.077 61.0141 168.569H61.0597H61.1053C61.4701 168.477 61.7893 168.292 62.0629 168.107L65.027 166.768C66.7142 166.029 68.447 165.428 70.2255 164.966L73.5087 164.181C73.8735 164.135 74.2383 164.042 74.6031 163.904C76.3816 163.165 77.3392 161.132 76.792 159.285C76.6552 158.73 76.3816 158.268 76.0624 157.899C75.2416 156.975 74.8312 155.913 74.9224 154.804Z" fill="#FFAF66"/>
<path d="M70.2712 153.788C70.2256 153.695 70.0888 153.603 69.9976 153.649C69.9064 153.695 69.8152 153.834 69.8608 153.926C69.9064 154.019 70.0432 154.111 70.1344 154.065C70.2712 154.019 70.3168 153.926 70.2712 153.788Z" fill="#0A1031"/>
<path d="M73.6457 155.82C73.6001 155.728 73.4633 155.635 73.3721 155.682C73.2809 155.728 73.1897 155.866 73.2353 155.959C73.2809 156.051 73.4177 156.144 73.5089 156.097C73.6457 156.051 73.6913 155.959 73.6457 155.82Z" fill="#0A1031"/>
<path d="M70.818 154.388C70.7724 154.296 70.6356 154.203 70.5444 154.25C70.4532 154.296 70.362 154.434 70.4076 154.527C70.4532 154.619 70.59 154.712 70.6812 154.665C70.7724 154.619 70.8636 154.527 70.818 154.388Z" fill="#0A1031"/>
<path d="M59.0534 163.58C59.0078 163.488 58.871 163.396 58.7798 163.442C58.6886 163.488 58.5974 163.627 58.643 163.719C58.6886 163.811 58.8254 163.904 58.9166 163.858C59.0534 163.811 59.099 163.673 59.0534 163.58Z" fill="#0A1031"/>
<path d="M58.5973 164.273C58.5517 164.181 58.4149 164.089 58.3237 164.135C58.2325 164.181 58.1413 164.319 58.1869 164.412C58.2325 164.504 58.3693 164.597 58.4605 164.55C58.5973 164.55 58.6429 164.412 58.5973 164.273Z" fill="#0A1031"/>
<path d="M61.8805 163.396C61.8349 163.303 61.6981 163.211 61.6069 163.257C61.5157 163.303 61.4245 163.442 61.4701 163.534C61.5157 163.627 61.6525 163.719 61.7437 163.673C61.8349 163.627 61.9261 163.534 61.8805 163.396Z" fill="#0A1031"/>
<path d="M61.2419 166.722C61.1963 166.629 61.0595 166.537 60.9683 166.583C60.8771 166.629 60.7859 166.768 60.8315 166.86C60.8771 166.953 61.0139 167.045 61.1051 166.999C61.1963 166.953 61.2875 166.86 61.2419 166.722Z" fill="#0A1031"/>
<path d="M71.4113 157.899C71.3657 157.806 71.2289 157.714 71.1377 157.76C71.0465 157.806 70.9553 157.945 71.0009 158.037C71.0465 158.13 71.1833 158.222 71.2745 158.176C71.4113 158.13 71.4569 157.991 71.4113 157.899Z" fill="#0A1031"/>
<path d="M59.3268 160.994C59.2812 160.901 59.1444 160.809 59.0532 160.855C58.962 160.901 58.8708 161.04 58.9164 161.132C58.962 161.225 59.0988 161.317 59.19 161.271C59.2812 161.225 59.3724 161.086 59.3268 160.994Z" fill="#0A1031"/>
<path d="M71.8215 152.587C71.7759 152.494 71.6391 152.402 71.5479 152.448C71.4567 152.494 71.3655 152.633 71.4111 152.725C71.4567 152.818 71.5935 152.91 71.6847 152.864C71.7759 152.818 71.8671 152.679 71.8215 152.587Z" fill="#0A1031"/>
<path d="M68.2648 153.557C68.2192 153.464 68.0824 153.372 67.9912 153.418C67.9 153.464 67.8088 153.603 67.8544 153.695C67.9 153.788 68.0368 153.88 68.128 153.834C68.2648 153.788 68.3104 153.695 68.2648 153.557Z" fill="#0A1031"/>
<path d="M61.5158 154.989C61.1966 154.065 60.239 153.603 59.3725 153.926C58.4605 154.25 58.0045 155.22 58.3237 156.097C58.6429 157.021 59.6006 157.483 60.467 157.16C61.379 156.836 61.835 155.866 61.5158 154.989Z" fill="white"/>
<path d="M62.8383 150.878C62.6103 150.185 61.8807 149.861 61.2422 150.092C60.5582 150.323 60.239 151.062 60.467 151.709C60.695 152.402 61.4247 152.725 62.0631 152.494C62.7015 152.263 63.0663 151.524 62.8383 150.878Z" fill="white"/>
<path d="M56.454 152.725C56.2716 152.217 55.7244 151.94 55.2227 152.125C54.7211 152.31 54.4475 152.864 54.6299 153.372C54.8123 153.88 55.3596 154.157 55.8612 153.973C56.3628 153.834 56.6364 153.28 56.454 152.725Z" fill="white"/>
<path d="M58.5063 158.638C58.2782 157.945 57.5486 157.622 56.9102 157.853C56.2262 158.084 55.907 158.823 56.135 159.469C56.363 160.162 57.0926 160.486 57.731 160.255C58.3694 160.024 58.7343 159.285 58.5063 158.638Z" fill="white"/>
<path d="M14.6835 183.905L13.3154 182.75L17.5107 177.808L38.2135 183.628C37.9399 184.598 36.9823 185.152 36.0247 184.875L18.1035 179.84L14.6835 183.905Z" fill="#BE7AC2"/>
<path d="M34.7422 183.203L33.0791 183.491L34.0632 189.319L35.7263 189.031L34.7422 183.203Z" fill="#BE7AC2"/>
<path d="M11.9019 192.127C11.6739 192.543 11.0811 192.358 11.0811 191.896C11.0811 190.649 11.2635 189.402 11.5827 188.155L12.5859 184.552L14.3643 185.06L13.3611 188.663C12.9963 189.864 12.5403 191.065 11.9019 192.127Z" fill="white"/>
<path d="M13.5435 192.589C13.3155 193.005 12.7227 192.82 12.7227 192.358C12.7227 191.111 12.9051 189.864 13.2243 188.617L14.2275 185.014L16.0059 185.522L15.0027 189.125C14.6379 190.326 14.1819 191.527 13.5435 192.589Z" fill="white"/>
<path d="M15.1851 193.051C14.9571 193.467 14.3643 193.282 14.3643 192.82C14.3643 191.573 14.5467 190.326 14.8659 189.079L15.8691 185.476L17.6475 185.984L16.6443 189.587C16.2795 190.788 15.8235 191.989 15.1851 193.051Z" fill="white"/>
<path d="M16.8267 193.513C16.5987 193.929 16.0059 193.744 16.0059 193.282C16.0059 192.035 16.1883 190.788 16.5075 189.54L17.5107 185.938L19.2891 186.446L18.2859 190.049C17.9667 191.25 17.4651 192.451 16.8267 193.513Z" fill="white"/>
<path d="M18.4683 193.975C18.2403 194.391 17.6475 194.206 17.6475 193.744C17.6475 192.497 17.8299 191.25 18.1491 190.002L19.1523 186.399L20.9307 186.908L19.9275 190.511C19.6083 191.712 19.1067 192.913 18.4683 193.975Z" fill="white"/>
<path d="M20.1099 194.437C19.8819 194.853 19.2891 194.668 19.2891 194.206C19.2891 192.959 19.4715 191.712 19.7907 190.464L20.7939 186.861L22.5723 187.369L21.5691 190.972C21.2499 192.173 20.7483 193.374 20.1099 194.437Z" fill="white"/>
<path d="M21.7515 194.899C21.5235 195.315 20.9307 195.13 20.9307 194.668C20.9307 193.421 21.1131 192.173 21.4323 190.926L22.4355 187.323L24.2139 187.831L23.2107 191.434C22.8915 192.635 22.3899 193.836 21.7515 194.899Z" fill="white"/>
<path d="M23.3931 195.361C23.1651 195.776 22.5723 195.592 22.5723 195.13C22.5723 193.883 22.7547 192.635 23.0739 191.388L24.0771 187.785L25.8555 188.293L24.8523 191.896C24.5331 193.097 24.0315 194.298 23.3931 195.361Z" fill="white"/>
<path d="M25.0347 195.823C24.8067 196.238 24.2139 196.054 24.2139 195.592C24.2139 194.345 24.3963 193.097 24.7155 191.85L25.7187 188.247L27.4971 188.755L26.4939 192.358C26.1747 193.559 25.6731 194.76 25.0347 195.823Z" fill="white"/>
<path d="M26.6768 196.285C26.4488 196.7 25.856 196.516 25.856 196.054C25.856 194.806 26.0384 193.559 26.3576 192.312L27.3608 188.709L29.1392 189.217L28.136 192.82C27.8168 194.021 27.3152 195.222 26.6768 196.285Z" fill="white"/>
<path d="M28.3184 196.747C28.0904 197.162 27.4976 196.978 27.4976 196.516C27.4976 195.268 27.68 194.021 27.9992 192.774L29.0024 189.171L30.7808 189.679L29.7776 193.282C29.4584 194.483 28.9568 195.638 28.3184 196.747Z" fill="white"/>
<path d="M29.96 197.208C29.732 197.624 29.1392 197.439 29.1392 196.978C29.1392 195.73 29.3216 194.483 29.6408 193.236L30.644 189.633L32.4224 190.141L31.4192 193.744C31.1 194.945 30.5984 196.1 29.96 197.208Z" fill="white"/>
<path d="M31.6016 197.67C31.3736 198.086 30.7808 197.901 30.7808 197.439C30.7808 196.192 30.9632 194.945 31.2824 193.698L32.2856 190.095L34.064 190.603L33.0608 194.206C32.7416 195.407 32.24 196.562 31.6016 197.67Z" fill="white"/>
<path d="M33.2432 198.132C33.0152 198.548 32.4224 198.363 32.4224 197.901C32.4224 196.654 32.6048 195.407 32.924 194.16L33.9272 190.557L35.7056 191.065L34.7024 194.668C34.3832 195.869 33.8816 197.024 33.2432 198.132Z" fill="white"/>
<path d="M36.8663 189.147L12.4766 182.297L11.514 185.814L35.9038 192.664L36.8663 189.147Z" fill="#BE7AC2"/>
<path d="M15.5957 186.954L35.9337 192.636" stroke="#0A1031" stroke-miterlimit="10"/>
<path d="M18.0122 179.84L35.9789 184.875" stroke="#0A1031" stroke-miterlimit="10"/>
<path d="M6.74902 177.946V181.734" stroke="#0A1031" stroke-miterlimit="10"/>
<path d="M8.61866 179.84H4.87939" stroke="#0A1031" stroke-miterlimit="10"/>
<path d="M2.27988 171.757C2.27988 172.311 1.82387 172.773 1.27666 172.773C0.729446 172.773 0.273438 172.311 0.273438 171.757C0.273438 171.202 0.729446 170.74 1.27666 170.74C1.82387 170.74 2.27988 171.156 2.27988 171.757Z" stroke="#0A1031" stroke-miterlimit="10"/>
</g>
<g clip-path="url(#clip2_253_1558)">
<path d="M150.371 30.739L149.597 30.3252C149.359 30.207 149.121 29.9705 149.002 29.734L148.586 28.9656C148.408 28.67 147.991 28.67 147.813 28.9656L147.396 29.734C147.277 29.9705 147.039 30.207 146.801 30.3252L146.028 30.739C145.73 30.9163 145.73 31.3301 146.028 31.5074L146.801 31.9212C147.039 32.0395 147.277 32.2759 147.396 32.5124L147.813 33.2808C147.991 33.5764 148.408 33.5764 148.586 33.2808L149.002 32.5124C149.121 32.2759 149.359 32.0395 149.597 31.9212L150.371 31.5074C150.728 31.3301 150.728 30.9163 150.371 30.739Z" fill="white"/>
<path d="M145.373 13.6552C146.206 12.2365 145.73 10.4631 144.362 9.63552C142.994 8.80793 141.149 9.28084 140.316 10.6404" stroke="#0A1031" stroke-miterlimit="10"/>
<path d="M134.01 21.5172L136.331 22.8768L138.651 24.2365L154 7.0936L152.751 5.26108L142.934 12.0591L144.303 0.236453L142.042 0L134.01 21.5172ZM141.863 13.7143C142.756 14.2463 142.637 16.0788 141.566 17.7931C140.495 19.5074 138.948 20.5123 138.056 19.9803C137.163 19.4483 137.282 17.6158 138.353 15.9015C139.424 14.1872 140.971 13.1823 141.863 13.7143Z" fill="#FFAF66"/>
<path d="M136.331 22.8769L138.115 19.9803" stroke="#0A1031" stroke-miterlimit="10"/>
<path d="M141.745 13.9507L142.994 11.8226" stroke="#0A1031" stroke-miterlimit="10"/>
<path d="M130.976 71.8818L90.8773 62.8375C88.6761 62.3646 87.3077 60.1774 87.8432 58.0493L95.2204 25.9508L101.765 23.6454L119.791 28.7291L138.234 31.9212L143.172 36.8277L135.795 68.9262C135.319 71.0543 133.177 72.4139 130.976 71.8818Z" fill="#BE7AC2"/>
<path d="M107.298 19.6848L119.791 28.67L115.329 33.6947C113.842 35.3498 111.224 35.2907 109.796 33.5764L101.765 23.6454L107.298 19.6848Z" fill="#BE7AC2"/>
<path d="M134.962 25.9508L119.791 28.7291L121.695 35.1134C122.349 37.2414 124.729 38.3055 126.752 37.3597L138.234 31.9212L134.962 25.9508Z" fill="#BE7AC2"/>
<path d="M119.791 28.7291L115.329 33.6946C113.842 35.3498 111.224 35.2907 109.796 33.5764L101.765 23.6454" stroke="#0A1031" stroke-miterlimit="10"/>
<path d="M119.791 28.7291L121.695 35.1134C122.349 37.2414 124.729 38.3055 126.752 37.3597L138.234 31.9212" stroke="#0A1031" stroke-miterlimit="10"/>
<path d="M116.698 32.0986L108.785 66.8573" stroke="#0A1031" stroke-miterlimit="10"/>
<path d="M121.16 33.1035L113.188 67.8621" stroke="#0A1031" stroke-miterlimit="10"/>
<path d="M128.061 57.872L126.514 57.5174C124.075 56.9853 122.528 54.5617 123.063 52.0789L124.372 46.4041L134.843 48.7686L133.534 54.4435C132.939 56.8671 130.5 58.4041 128.061 57.872Z" stroke="#0A1031" stroke-miterlimit="10"/>
<path d="M122.052 60.7094L81.1202 57.1035C78.9189 56.9261 77.2531 54.9754 77.4316 52.7291L80.4062 19.9212L86.6531 16.7882L105.156 19.3892L123.837 20.0986L129.429 24.2956L126.454 57.1035C126.276 59.2907 124.313 60.8867 122.052 60.7094Z" fill="white"/>
<path d="M91.5318 12.1183L105.156 19.3892L101.408 24.8868C100.158 26.7193 97.5407 27.0148 95.9343 25.4779L86.6533 16.7882L91.5318 12.1183Z" fill="white"/>
<path d="M119.851 14.6602L105.156 19.3892L107.892 25.4779C108.785 27.4877 111.343 28.2562 113.187 27.0148L123.837 20.0986L119.851 14.6602Z" fill="white"/>
<path d="M105.156 19.3892L101.408 24.8867C100.158 26.7192 97.5407 27.0148 95.9343 25.4779L86.6533 16.7882" stroke="#0A1031" stroke-miterlimit="10"/>
<path d="M105.156 19.3892L107.892 25.4778C108.785 27.4877 111.343 28.2562 113.187 27.0148L123.837 20.0985" stroke="#0A1031" stroke-miterlimit="10"/>
<path d="M102.538 23.1725L99.3848 58.6996" stroke="#0A1031" stroke-miterlimit="10"/>
<path d="M107.119 23.5863L103.906 59.1134" stroke="#0A1031" stroke-miterlimit="10"/>
<path d="M117.233 47.1725L115.627 47.0542C113.128 46.8178 111.284 44.6306 111.522 42.1478L112.057 36.3547L122.706 37.3005L122.171 43.0937C121.933 45.5764 119.732 47.4089 117.233 47.1725Z" stroke="#0A1031" stroke-miterlimit="10"/>
<path d="M62.4395 17.2611V22.1084" stroke="#0A1031" stroke-miterlimit="10"/>
<path d="M64.8785 19.6847H60" stroke="#0A1031" stroke-miterlimit="10"/>
<path d="M71.7203 10.1084C71.7203 10.8178 71.1253 11.4089 70.4114 11.4089C69.6975 11.4089 69.1025 10.8178 69.1025 10.1084C69.1025 9.39908 69.6975 8.80794 70.4114 8.80794C71.1253 8.74883 71.7203 9.39908 71.7203 10.1084Z" stroke="#0A1031" stroke-miterlimit="10"/>
</g>
<defs>
<clipPath id="clip0_253_1558">
<rect width="333" height="182" fill="white" transform="translate(8 28)"/>
</clipPath>
<clipPath id="clip1_253_1558">
<rect width="85" height="74" fill="white" transform="translate(0 150)"/>
</clipPath>
<clipPath id="clip2_253_1558">
<rect width="94" height="72" fill="white" transform="translate(60)"/>
</clipPath>
</defs>
</svg>
